<?xml version="1.0" standalone="no"?>
<!DOCTYPE svg PUBLIC "-//W3C//DTD SVG 20010904//EN"
 "http://www.w3.org/TR/2001/REC-SVG-20010904/DTD/svg10.dtd">
<svg version="1.0" xmlns="http://www.w3.org/2000/svg"
 width="192.000000pt" height="192.000000pt" viewBox="0 0 192.000000 192.000000"
 preserveAspectRatio="xMidYMid meet">

<g transform="translate(0.000000,192.000000) scale(0.100000,-0.100000)"
fill="#000000" stroke="none">
<path d="M780 1510 c-23 -42 -30 -165 -15 -262 8 -55 10 -107 6 -128 -13 -57
29 -124 101 -161 l38 -19 -18 -33 c-10 -17 -29 -62 -42 -98 -26 -76 -58 -123
-67 -99 -15 39 -72 77 -135 90 -77 15 -115 33 -123 60 -10 33 13 53 53 45 42
-8 62 8 62 49 0 95 -159 115 -205 27 -27 -54 -28 -102 -3 -151 28 -55 76 -84
167 -101 123 -22 160 -54 161 -135 0 -47 3 -53 41 -84 22 -18 45 -45 51 -61
12 -34 42 -46 70 -27 20 13 24 12 42 -8 16 -17 37 -23 84 -28 59 -5 65 -4 87
20 20 22 27 24 45 14 32 -17 60 -6 110 45 44 44 45 48 45 108 0 53 -6 72 -38
130 -21 37 -45 89 -53 116 -8 27 -21 62 -29 78 -8 15 -15 31 -15 35 0 3 24 20
53 36 69 39 104 101 88 157 -6 24 -6 56 0 93 5 31 9 102 7 157 -2 100 -17 155
-42 155 -7 0 -41 -30 -76 -66 l-63 -65 -53 22 c-31 12 -61 18 -71 14 -10 -3
-39 -10 -64 -15 l-46 -9 -64 60 c-35 32 -67 59 -71 59 -4 0 -12 -9 -18 -20z
m555 -140 c0 -95 -10 -143 -28 -137 -7 2 -12 22 -12 45 0 22 -3 44 -7 48 -13
12 -9 54 9 111 14 45 18 51 27 36 6 -10 10 -56 11 -103z m-514 0 c-1 -25 -1
-63 -1 -85 0 -43 -14 -74 -27 -61 -10 10 -17 222 -8 244 12 27 38 -45 36 -98z
m279 -115 c-25 -30 -102 -3 -83 28 5 8 8 8 11 -1 6 -19 62 -15 70 6 6 16 7 16
10 -1 2 -10 -2 -24 -8 -32z m-222 -96 c-6 -17 -8 -48 -5 -70 5 -35 3 -38 -10
-27 -18 14 -13 89 7 113 18 22 20 19 8 -16z m377 1 c21 -40 19 -73 -6 -101
-19 -23 -20 -23 -10 -2 14 27 14 74 1 107 -13 35 -4 33 15 -4z m-275 0 c0 -5
-4 -10 -10 -10 -5 0 -10 5 -10 10 0 6 5 10 10 10 6 0 10 -4 10 -10z m180 6 c0
-3 -4 -8 -10 -11 -5 -3 -10 -1 -10 4 0 6 5 11 10 11 6 0 10 -2 10 -4z"/>
</g>
</svg>
